<?xml version="1.0" encoding="iso-8859-1"?>
<!-- Generator: Adobe Illustrator 19.0.0, SVG Export Plug-In . SVG Version: 6.00 Build 0)  -->
<svg version="1.1" id="Layer_1" xmlns="http://www.w3.org/2000/svg" xmlns:xlink="http://www.w3.org/1999/xlink" x="0px" y="0px"
	 viewBox="0 0 512 512" style="enable-background:new 0 0 512 512;" xml:space="preserve">
<g>
	<path style="fill:#25B99A;" d="M468.142,0H85.962C71.306,0,59.429,11.877,59.429,26.533v92.325
		c-20.197,0-36.571,16.375-36.571,36.571c0,10.99,4.946,20.727,12.608,27.429c-7.662,6.702-12.608,16.439-12.608,27.429
		c0,10.99,4.946,20.727,12.608,27.429c-7.662,6.702-12.608,16.439-12.608,27.429c0,10.99,4.946,20.727,12.608,27.429
		C27.804,299.273,22.858,309.01,22.858,320c0,20.197,16.375,36.571,36.571,36.571v109.714c0-25.243,20.462-45.714,45.714-45.714
		h393.143V30.144C498.286,13.495,484.791,0,468.142,0"/>
	<g>
		<path style="fill:#199172;" d="M132.571,0h-46.61C71.305,0,59.428,11.877,59.428,26.533v92.325
			c-20.197,0-36.571,16.375-36.571,36.571c0,10.99,4.946,20.727,12.617,27.429c-7.671,6.702-12.617,16.439-12.617,27.429
			c0,10.99,4.946,20.727,12.617,27.429c-7.671,6.702-12.617,16.439-12.617,27.429c0,10.99,4.946,20.727,12.617,27.429
			C27.803,299.273,22.857,309.01,22.857,320c0,20.197,16.375,36.571,36.571,36.571v109.714c0-25.243,20.471-45.714,45.714-45.714
			h27.429V0z"/>
		<path style="fill:#199172;" d="M498.285,512H105.142c-25.243,0-45.714-20.471-45.714-45.714l0,0
			c0-25.243,20.471-45.714,45.714-45.714h393.143V512z"/>
	</g>
	<g>
		<path style="fill:#25B99A;" d="M141.714,475.429H96c-5.047,0-9.143-4.087-9.143-9.143s4.096-9.143,9.143-9.143h45.714
			c5.047,0,9.143,4.087,9.143,9.143S146.761,475.429,141.714,475.429"/>
		<path style="fill:#25B99A;" d="M388.571,475.429H178.285c-5.047,0-9.143-4.087-9.143-9.143s4.096-9.143,9.143-9.143h210.286
			c5.047,0,9.143,4.087,9.143,9.143S393.618,475.429,388.571,475.429"/>
	</g>
	<g>
		<path style="fill:#E0E2E3;" d="M59.428,365.714c-25.207,0-45.714-20.507-45.714-45.714s20.507-45.714,45.714-45.714
			s45.714,20.507,45.714,45.714c0,5.056-4.096,9.143-9.143,9.143c-5.047,0-9.143-4.087-9.143-9.143
			c0-15.122-12.306-27.429-27.429-27.429S32,304.878,32,320s12.306,27.429,27.429,27.429c5.047,0,9.143,4.087,9.143,9.143
			S64.475,365.714,59.428,365.714"/>
		<path style="fill:#E0E2E3;" d="M35.468,304.714l-6.016-5.257c-10.002-8.75-15.735-21.257-15.735-34.313
			c0-25.207,20.507-45.714,45.714-45.714c25.198,0,45.714,20.507,45.714,45.714c0,5.056-4.096,9.143-9.143,9.143
			c-5.056,0-9.143-4.087-9.143-9.143c0-15.122-12.306-27.429-27.429-27.429c-15.131,0-27.429,12.306-27.429,27.429
			c0,5.541,1.664,10.807,4.773,15.296c16.384-9.518,38.107-7.451,52.626,5.248c3.803,3.319,4.187,9.097,0.869,12.901
			c-3.319,3.813-9.097,4.197-12.901,0.869c-3.593-3.145-9.618-6.885-17.938-6.885c-8.329,0-14.354,3.739-17.947,6.885
			L35.468,304.714z"/>
		<path style="fill:#E0E2E3;" d="M35.468,249.857l-6.016-5.257c-10.002-8.75-15.735-21.257-15.735-34.313
			c0-25.207,20.507-45.714,45.714-45.714c25.198,0,45.714,20.507,45.714,45.714c0,5.056-4.096,9.143-9.143,9.143
			c-5.056,0-9.143-4.087-9.143-9.143c0-15.122-12.306-27.429-27.429-27.429c-15.131,0-27.429,12.306-27.429,27.429
			c0,5.541,1.664,10.807,4.773,15.296c16.384-9.518,38.107-7.442,52.626,5.248c3.803,3.319,4.187,9.097,0.869,12.901
			c-3.319,3.822-9.097,4.206-12.901,0.869c-3.593-3.145-9.618-6.885-17.938-6.885c-8.329,0-14.354,3.739-17.947,6.885
			L35.468,249.857z"/>
		<path style="fill:#E0E2E3;" d="M35.468,195l-6.016-5.257c-10.002-8.75-15.735-21.257-15.735-34.313
			c0-25.207,20.507-45.714,45.714-45.714c25.198,0,45.714,20.507,45.714,45.714c0,5.056-4.096,9.143-9.143,9.143
			c-5.056,0-9.143-4.087-9.143-9.143c0-15.122-12.306-27.429-27.429-27.429c-15.131,0-27.429,12.306-27.429,27.429
			c0,5.541,1.664,10.807,4.773,15.296c16.384-9.509,38.107-7.451,52.626,5.248c3.803,3.319,4.187,9.097,0.869,12.901
			c-3.319,3.813-9.097,4.197-12.901,0.869c-3.593-3.145-9.618-6.885-17.938-6.885c-8.329,0-14.354,3.739-17.947,6.885L35.468,195z"
			/>
		<path style="fill:#E0E2E3;" d="M59.428,365.714c-5.047,0-9.143-4.087-9.143-9.143v-27.429c0-5.056,4.096-9.143,9.143-9.143
			s9.143,4.087,9.143,9.143v27.429C68.571,361.627,64.475,365.714,59.428,365.714"/>
	</g>
	<path style="fill:#EDEBDA;" d="M431.238,173.714H199.622c-6.738,0-12.197-5.458-12.197-12.187V76.187
		c0-6.729,5.458-12.187,12.197-12.187h231.616c6.729,0,12.187,5.458,12.187,12.187v85.339
		C443.425,168.256,437.967,173.714,431.238,173.714"/>
	<g>
		<path style="fill:#199172;" d="M370.285,338.286H260.571c-5.047,0-9.143-4.087-9.143-9.143c0-5.056,4.096-9.143,9.143-9.143
			h109.714c5.047,0,9.143,4.087,9.143,9.143C379.428,334.199,375.332,338.286,370.285,338.286"/>
		<path style="fill:#199172;" d="M406.857,374.857H224c-5.047,0-9.143-4.087-9.143-9.143c0-5.056,4.096-9.143,9.143-9.143h182.857
			c5.047,0,9.143,4.087,9.143,9.143C416,370.77,411.904,374.857,406.857,374.857"/>
	</g>
	<g>
		<path style="fill:#25B99A;" d="M461.714,438.857c-5.047,0-9.143,4.087-9.143,9.143c0,5.056,4.096,9.143,9.143,9.143h36.571
			v-18.286H461.714z"/>
		<path style="fill:#25B99A;" d="M461.714,475.429c-5.047,0-9.143,4.087-9.143,9.143c0,5.056,4.096,9.143,9.143,9.143h36.571
			v-18.286H461.714z"/>
	</g>
</g>
<g>
</g>
<g>
</g>
<g>
</g>
<g>
</g>
<g>
</g>
<g>
</g>
<g>
</g>
<g>
</g>
<g>
</g>
<g>
</g>
<g>
</g>
<g>
</g>
<g>
</g>
<g>
</g>
<g>
</g>
</svg>
