<?xml version="1.0" encoding="iso-8859-1"?>
<!-- Generator: Adobe Illustrator 19.0.0, SVG Export Plug-In . SVG Version: 6.00 Build 0)  -->
<svg version="1.1" id="Layer_1" xmlns="http://www.w3.org/2000/svg" xmlns:xlink="http://www.w3.org/1999/xlink" x="0px" y="0px"
	 viewBox="0 0 512 512" style="enable-background:new 0 0 512 512;" xml:space="preserve">
<path style="fill:#E07188;" d="M89.6,473.6V38.4C89.6,17.193,106.793,0,128,0h345.6v435.2H448L89.6,473.6z"/>
<polygon style="fill:#E02753;" points="280.32,0 280.32,453.165 448,435.2 473.6,435.2 473.6,0 "/>
<path style="fill:#F8F8F9;" d="M128,512c-21.207,0-38.4-17.193-38.4-38.4s17.193-38.4,38.4-38.4h345.6
	c-21.207,0-38.4,17.193-38.4,38.4s17.193,38.4,38.4,38.4H128z"/>
<path style="fill:#EDEDED;" d="M435.2,473.6c0-21.207,17.193-38.4,38.4-38.4h-192V512h192C452.393,512,435.2,494.807,435.2,473.6z"
	/>
<path style="fill:#88888F;" d="M140.8,371.2H38.4v-38.4h102.4V371.2z M140.8,243.2H38.4v38.4h102.4V243.2z M140.8,153.6H38.4V192
	h102.4V153.6z M140.8,64H38.4v38.4h102.4V64z"/>
<g>
</g>
<g>
</g>
<g>
</g>
<g>
</g>
<g>
</g>
<g>
</g>
<g>
</g>
<g>
</g>
<g>
</g>
<g>
</g>
<g>
</g>
<g>
</g>
<g>
</g>
<g>
</g>
<g>
</g>
</svg>
