<?xml version="1.0" encoding="iso-8859-1"?>
<!-- Generator: Adobe Illustrator 18.0.0, SVG Export Plug-In . SVG Version: 6.00 Build 0)  -->
<!DOCTYPE svg PUBLIC "-//W3C//DTD SVG 1.1//EN" "http://www.w3.org/Graphics/SVG/1.1/DTD/svg11.dtd">
<svg version="1.1" id="Capa_1" xmlns="http://www.w3.org/2000/svg" xmlns:xlink="http://www.w3.org/1999/xlink" x="0px" y="0px"
	 viewBox="0 0 60 60" style="enable-background:new 0 0 60 60;" xml:space="preserve">
<g>
	<path d="M46,34c-7.168,0-13,5.832-13,13s5.832,13,13,13s13-5.832,13-13S53.168,34,46,34z M46,58c-6.065,0-11-4.935-11-11
		s4.935-11,11-11s11,4.935,11,11S52.065,58,46,58z"/>
	<path d="M52,46h-5v-5c0-0.553-0.448-1-1-1s-1,0.447-1,1v5h-5c-0.552,0-1,0.447-1,1s0.448,1,1,1h5v5c0,0.553,0.448,1,1,1
		s1-0.447,1-1v-5h5c0.552,0,1-0.447,1-1S52.552,46,52,46z"/>
	<path d="M18,22h20V12H18V22z M21,14h14v2H21V14z M21,18h14v2H21V18z"/>
	<path d="M30,47c0-8.822,7.178-16,16-16c0.338,0,0.668,0.03,1,0.051V0H11H1v60h10h25.708C32.655,57.094,30,52.356,30,47z M9,58H3V2
		h6V58z M16,10h24v14H16V10z"/>
</g>
<g>
</g>
<g>
</g>
<g>
</g>
<g>
</g>
<g>
</g>
<g>
</g>
<g>
</g>
<g>
</g>
<g>
</g>
<g>
</g>
<g>
</g>
<g>
</g>
<g>
</g>
<g>
</g>
<g>
</g>
</svg>
