<?xml version="1.0" encoding="iso-8859-1"?>
<!-- Generator: Adobe Illustrator 19.0.0, SVG Export Plug-In . SVG Version: 6.00 Build 0)  -->
<svg version="1.1" id="Layer_1" xmlns="http://www.w3.org/2000/svg" xmlns:xlink="http://www.w3.org/1999/xlink" x="0px" y="0px"
	 viewBox="0 0 512 512" style="enable-background:new 0 0 512 512;" xml:space="preserve">
<g>
	<g>
		<g>
			<path d="M493.137,118.568h-2.695V94.316c0-16.345-13.298-29.642-29.642-29.642H330.752l-9.214-41.461
				C318.501,9.545,306.602,0,292.602,0H197.84c-14,0-25.899,9.545-28.936,23.212l-9.214,41.461H29.642
				C13.297,64.674,0,77.971,0,94.316v323.368c0,13.544,9.13,24.994,21.558,28.521v36.153C21.558,498.703,34.855,512,51.2,512
				h388.042c16.344,0,29.642-13.297,29.642-29.642v-36.153c12.428-3.527,21.558-14.977,21.558-28.521V223.663
				c0-4.465-3.618-8.084-8.084-8.084c-4.466,0-8.084,3.62-8.084,8.084v194.021c0,7.43-6.044,13.474-13.474,13.474h-32.337
				c-4.466,0-8.084,3.62-8.084,8.084c0,4.465,3.618,8.084,8.084,8.084h24.253v35.032c0,7.43-6.044,13.474-13.474,13.474H51.2
				c-7.43,0-13.474-6.044-13.474-13.474v-35.032h358.4c4.466,0,8.084-3.62,8.084-8.084c0-4.465-3.618-8.084-8.084-8.084H29.642
				c-7.43,0-13.474-6.044-13.474-13.474V94.316c0-7.43,6.044-13.474,13.474-13.474h126.7c-0.707,7.61,1.541,15.184,6.401,21.243
				c5.656,7.051,14.083,11.094,23.122,11.094H256c4.465,0,8.084-3.62,8.084-8.084c0-4.465-3.62-8.084-8.084-8.084h-70.136
				c-4.108,0-7.939-1.838-10.51-5.042c-2.571-3.205-3.534-7.343-2.643-11.353l2.344-10.552h113.281c4.466,0,8.084-3.62,8.084-8.084
				c0-4.465-3.619-8.084-8.084-8.084H178.649l6.037-27.176c1.381-6.213,6.79-10.552,13.154-10.552h94.762
				c6.364,0,11.773,4.34,13.152,10.552l11.977,53.895c0.89,4.011-0.072,8.149-2.643,11.353c-2.571,3.206-6.402,5.044-10.511,5.044
				h-16.241c-4.466,0-8.084,3.62-8.084,8.084c0,4.465,3.618,8.084,8.084,8.084h16.241c9.039,0,17.466-4.043,23.123-11.094
				c4.859-6.059,7.108-13.633,6.402-21.243H460.8c7.43,0,13.474,6.044,13.474,13.474v24.253h-88.926
				c-10.401,0-18.863,8.463-18.863,18.863v43.116c0,10.401,8.463,18.863,18.863,18.863h107.789c10.401,0,18.863-8.463,18.863-18.863
				v-43.116C512,127.031,503.537,118.568,493.137,118.568z M495.832,180.547c0,1.485-1.208,2.695-2.695,2.695H385.347
				c-1.486,0-2.695-1.209-2.695-2.695v-43.116c0-1.485,1.208-2.695,2.695-2.695h107.789c1.486,0,2.695,1.209,2.695,2.695V180.547z"
				/>
			<path d="M331.453,393.432c4.466,0,8.084-3.62,8.084-8.084V264.084h110.484c4.466,0,8.084-3.62,8.084-8.084
				c0-4.465-3.619-8.084-8.084-8.084H339.537V137.432c0-4.465-3.619-8.084-8.084-8.084s-8.084,3.62-8.084,8.084v110.484H167.074
				V137.432c0-4.465-3.62-8.084-8.084-8.084c-4.465,0-8.084,3.62-8.084,8.084v110.484H40.421c-4.465,0-8.084,3.62-8.084,8.084
				c0,4.465,3.62,8.084,8.084,8.084h110.484v121.263c0,4.465,3.62,8.084,8.084,8.084c4.465,0,8.084-3.62,8.084-8.084V264.084
				h156.295v121.263C323.368,389.812,326.987,393.432,331.453,393.432z"/>
			<path d="M296.421,299.116c0-4.465-3.619-8.084-8.084-8.084h-86.232c-4.465,0-8.084,3.62-8.084,8.084s3.62,8.084,8.084,8.084
				h86.232C292.803,307.2,296.421,303.58,296.421,299.116z"/>
			<path d="M460.8,150.905h-53.895c-4.466,0-8.084,3.62-8.084,8.084c0,4.465,3.618,8.084,8.084,8.084H460.8
				c4.466,0,8.084-3.62,8.084-8.084C468.884,154.525,465.266,150.905,460.8,150.905z"/>
			<path d="M40.421,323.368c-4.465,0-8.084,3.62-8.084,8.084s3.62,8.084,8.084,8.084h43.116c4.465,0,8.084-3.62,8.084-8.084
				s-3.62-8.084-8.084-8.084H40.421z"/>
			<path d="M40.421,167.074h43.116c4.465,0,8.084-3.62,8.084-8.084c0-4.465-3.62-8.084-8.084-8.084H40.421
				c-4.465,0-8.084,3.62-8.084,8.084C32.337,163.454,35.956,167.074,40.421,167.074z"/>
			<path d="M40.421,134.737h86.232c4.465,0,8.084-3.62,8.084-8.084c0-4.465-3.62-8.084-8.084-8.084H40.421
				c-4.465,0-8.084,3.62-8.084,8.084C32.337,131.117,35.956,134.737,40.421,134.737z"/>
			<path d="M134.737,299.116c0-4.465-3.62-8.084-8.084-8.084H40.421c-4.465,0-8.084,3.62-8.084,8.084s3.62,8.084,8.084,8.084h86.232
				C131.117,307.2,134.737,303.58,134.737,299.116z"/>
			<path d="M202.105,323.368c-4.465,0-8.084,3.62-8.084,8.084s3.62,8.084,8.084,8.084h43.116c4.465,0,8.084-3.62,8.084-8.084
				s-3.62-8.084-8.084-8.084H202.105z"/>
		</g>
	</g>
</g>
<g>
</g>
<g>
</g>
<g>
</g>
<g>
</g>
<g>
</g>
<g>
</g>
<g>
</g>
<g>
</g>
<g>
</g>
<g>
</g>
<g>
</g>
<g>
</g>
<g>
</g>
<g>
</g>
<g>
</g>
</svg>
