<?xml version="1.0" encoding="iso-8859-1"?>
<!-- Generator: Adobe Illustrator 19.0.0, SVG Export Plug-In . SVG Version: 6.00 Build 0)  -->
<svg version="1.1" id="Layer_1" xmlns="http://www.w3.org/2000/svg" xmlns:xlink="http://www.w3.org/1999/xlink" x="0px" y="0px"
	 viewBox="0 0 512 512" style="enable-background:new 0 0 512 512;" xml:space="preserve">
<g transform="translate(0 1)">
	<g>
		<path style="fill:#FFDD09;" d="M213.333,229.4H25.6c-9.387,0-17.067-7.68-17.067-17.067V24.6c0-9.387,7.68-17.067,17.067-17.067
			h187.733c9.387,0,17.067,7.68,17.067,17.067v187.733C230.4,221.72,222.72,229.4,213.333,229.4"/>
		<path style="fill:#FFDD09;" d="M486.4,502.467H298.667c-9.387,0-17.067-7.68-17.067-17.067V297.667
			c0-9.387,7.68-17.067,17.067-17.067H486.4c9.387,0,17.067,7.68,17.067,17.067V485.4
			C503.467,494.787,495.787,502.467,486.4,502.467"/>
		<path style="fill:#FFDD09;" d="M469.333,263.533c-5.12,0-8.533-3.413-8.533-8.533s0-11.093-0.853-16.213
			c0-5.12,3.413-8.533,7.68-9.387c5.12,0,8.533,3.413,9.387,7.68c0.853,5.973,0.853,11.947,0.853,17.92
			C477.867,260.12,474.453,263.533,469.333,263.533z"/>
		<path style="fill:#FFDD09;" d="M464.213,217.453c-4.267,0-7.68-2.56-8.533-6.827c-1.707-5.973-3.413-11.947-5.12-17.92
			c-1.707-4.267,0.853-9.387,5.12-11.093c4.267-1.707,9.387,0.853,11.093,5.12c1.707,6.827,4.267,12.8,5.12,19.627
			c0.853,4.267-1.707,9.387-6.827,10.24C465.92,217.453,465.067,217.453,464.213,217.453z M448,170.52
			c-3.413,0-5.973-1.707-7.68-5.12c-2.56-5.973-5.973-11.093-9.387-16.213c-2.56-4.267-1.707-9.387,2.56-11.947
			c4.267-2.56,9.387-1.707,11.947,2.56c3.413,5.973,6.827,11.947,10.24,17.92c1.707,4.267,0,9.387-3.413,11.093
			C450.56,170.52,449.707,170.52,448,170.52z"/>
		<path style="fill:#FFDD09;" d="M420.693,130.413c-2.56,0-4.267-0.853-5.973-2.56c-4.267-4.267-8.533-9.387-13.653-13.653
			c-3.413-3.413-3.413-8.533-0.853-11.947c3.413-3.413,8.533-3.413,11.947-0.853c5.12,4.267,10.24,9.387,14.507,14.507
			c3.413,3.413,2.56,8.533-0.853,11.947C424.107,129.56,422.4,130.413,420.693,130.413z M383.147,97.987
			c-1.707,0-3.413-0.853-4.267-1.707c-5.12-3.413-11.093-6.827-16.213-9.387c-5.12-1.707-6.827-6.827-4.267-11.093
			c1.707-4.267,6.827-5.973,11.093-3.413c5.973,3.413,11.947,6.827,17.92,10.24c4.267,2.56,5.12,7.68,2.56,11.947
			C388.267,97.133,385.707,97.987,383.147,97.987z M338.773,77.507c-0.853,0-1.707,0-2.56,0c-5.973-1.707-11.947-3.413-17.92-5.12
			c-4.267-0.853-7.68-5.973-6.827-10.24s5.973-7.68,10.24-6.827c5.973,1.707,12.8,3.413,19.627,5.12
			c4.267,1.707,6.827,5.973,5.12,11.093C345.6,74.947,342.187,77.507,338.773,77.507z"/>
		<path style="fill:#FFDD09;" d="M290.133,68.12L290.133,68.12c-5.973-0.853-11.947-0.853-17.067-0.853s-8.533-3.413-8.533-8.533
			s3.413-8.533,8.533-8.533c5.973,0,11.947,0,17.92,0.853c5.12,0,8.533,4.267,7.68,9.387C298.667,64.707,294.4,68.12,290.133,68.12z
			"/>
		<path style="fill:#FFDD09;" d="M60.587,289.133c-4.267,0-8.533-3.413-8.533-7.68c-0.853-5.973-0.853-11.947-0.853-17.92
			c0-5.12,3.413-8.533,8.533-8.533s8.533,3.413,8.533,8.533c0,5.12,0,11.093,0.853,16.213
			C69.12,284.867,65.707,289.133,60.587,289.133L60.587,289.133z"/>
		<path style="fill:#FFDD09;" d="M90.453,382.147c-2.56,0-5.973-1.707-6.827-4.267c-3.413-5.973-6.827-11.947-10.24-17.92
			c-1.707-4.267,0-9.387,3.413-11.093c4.267-1.707,9.387,0,11.093,3.413c2.56,5.973,5.973,11.093,9.387,16.213
			c2.56,4.267,1.707,9.387-2.56,11.947C93.867,381.293,92.16,382.147,90.453,382.147z M69.973,337.773
			c-3.413,0-6.827-2.56-8.533-5.973c-1.707-6.827-4.267-12.8-5.12-19.627c-0.853-4.267,1.707-9.387,6.827-10.24
			c4.267-0.853,9.387,1.707,10.24,6.827c1.707,5.973,3.413,11.947,5.12,17.92c1.707,4.267-0.853,9.387-5.12,11.093
			C71.68,336.92,70.827,337.773,69.973,337.773z"/>
		<path style="fill:#FFDD09;" d="M209.92,463.213c-0.853,0-0.853,0-1.707,0c-6.827-1.707-13.653-3.413-19.627-5.12
			c-4.267-1.707-6.827-5.973-5.12-11.093c1.707-4.267,5.973-6.827,11.093-5.12c5.973,1.707,11.947,3.413,17.92,5.12
			c4.267,0.853,7.68,5.973,6.827,10.24C216.747,460.653,213.333,463.213,209.92,463.213z M162.987,447c-1.707,0-2.56,0-3.413-0.853
			c-5.973-3.413-11.947-6.827-17.92-10.24c-4.267-2.56-5.12-7.68-2.56-11.947c2.56-4.267,7.68-5.12,11.947-2.56
			c5.12,3.413,11.093,6.827,16.213,9.387c4.267,1.707,5.973,6.827,3.413,11.093C168.96,445.293,166.4,447,162.987,447z
			 M122.88,419.693c-1.707,0-4.267-0.853-5.973-2.56c-5.12-4.267-10.24-9.387-14.507-14.507c-3.413-3.413-2.56-8.533,0.853-11.947
			c3.413-3.413,8.533-2.56,11.947,0.853c4.267,4.267,8.533,9.387,13.653,13.653c3.413,3.413,3.413,8.533,0.853,11.947
			C127.147,418.84,124.587,419.693,122.88,419.693z"/>
		<path style="fill:#FFDD09;" d="M256,468.333c-5.973,0-11.947,0-17.92-0.853c-5.12,0-8.533-4.267-7.68-9.387
			c0-5.12,4.267-8.533,9.387-7.68c5.12,0,11.093,0.853,16.213,0.853c5.12,0,8.533,3.413,8.533,8.533S261.12,468.333,256,468.333z"/>
	</g>
	<path style="fill:#FD9808;" d="M213.333,7.533h-25.6c9.387,0,17.067,7.68,17.067,17.067v187.733c0,9.387-7.68,17.067-17.067,17.067
		h25.6c9.387,0,17.067-7.68,17.067-17.067V24.6C230.4,15.213,222.72,7.533,213.333,7.533"/>
	<path style="fill:#FFFFFF;" d="M17.067,7.533h25.6C33.28,7.533,25.6,15.213,25.6,24.6v187.733c0,9.387,7.68,17.067,17.067,17.067
		h-25.6C7.68,229.4,0,221.72,0,212.333V24.6C0,15.213,7.68,7.533,17.067,7.533"/>
	<path style="fill:#FD9808;" d="M486.4,280.6h-25.6c9.387,0,17.067,7.68,17.067,17.067V485.4c0,9.387-7.68,17.067-17.067,17.067
		h25.6c9.387,0,17.067-7.68,17.067-17.067V297.667C503.467,288.28,495.787,280.6,486.4,280.6"/>
	<path d="M213.333,237.933H25.6c-14.507,0-25.6-11.093-25.6-25.6V24.6C0,10.093,11.093-1,25.6-1h187.733
		c14.507,0,25.6,11.093,25.6,25.6v187.733C238.933,226.84,227.84,237.933,213.333,237.933z M25.6,16.067
		c-5.12,0-8.533,3.413-8.533,8.533v187.733c0,5.12,3.413,8.533,8.533,8.533h187.733c5.12,0,8.533-3.413,8.533-8.533V24.6
		c0-5.12-3.413-8.533-8.533-8.533H25.6z"/>
	<path d="M460.8,255c-5.12,0-8.533-3.413-8.533-8.533c0-5.12,0-11.093-0.853-16.213c0-5.12,3.413-8.533,7.68-9.387
		c4.267,0,8.533,3.413,9.387,7.68c0.853,5.973,0.853,11.947,0.853,17.92C469.333,251.587,465.92,255,460.8,255z"/>
	<path d="M455.68,208.92c-4.267,0-7.68-2.56-8.533-6.827c-1.707-5.973-3.413-11.947-5.12-17.92
		c-1.707-4.267,0.853-9.387,5.12-11.093s9.387,0.853,11.093,5.12c1.707,6.827,4.267,12.8,5.12,19.627
		c0.853,4.267-1.707,9.387-6.827,10.24C457.387,208.92,456.533,208.92,455.68,208.92z M439.467,161.987
		c-3.413,0-5.973-1.707-7.68-5.12c-2.56-5.973-5.973-11.093-9.387-16.213c-2.56-4.267-1.707-9.387,2.56-11.947
		c4.267-2.56,9.387-1.707,11.947,2.56c3.413,5.973,6.827,11.947,10.24,17.92c1.707,4.267,0,9.387-3.413,11.093
		C442.027,161.987,441.173,161.987,439.467,161.987z"/>
	<path d="M412.16,121.88c-2.56,0-4.267-0.853-5.973-2.56c-4.267-4.267-8.533-9.387-13.653-13.653
		c-3.413-3.413-3.413-8.533-0.853-11.947c3.413-3.413,8.533-3.413,11.947-0.853c5.12,4.267,10.24,9.387,14.507,14.507
		c3.413,3.413,2.56,8.533-0.853,11.947C415.573,121.027,413.867,121.88,412.16,121.88z M374.613,89.453
		c-1.707,0-3.413-0.853-4.267-1.707c-5.12-3.413-11.093-6.827-16.213-9.387c-5.12-1.707-6.827-6.827-4.267-11.093
		c1.707-4.267,6.827-5.973,11.093-3.413c5.973,3.413,11.947,6.827,17.92,10.24c4.267,2.56,5.12,7.68,2.56,11.947
		C379.733,88.6,377.173,89.453,374.613,89.453z M330.24,68.973c-0.853,0-1.707,0-2.56,0c-5.973-1.707-11.947-3.413-17.92-5.12
		c-4.267-0.853-7.68-5.973-6.827-10.24c0.853-4.267,5.12-7.68,10.24-6.827c5.973,1.707,12.8,3.413,19.627,5.12
		c4.267,1.707,6.827,5.973,5.12,11.093C337.067,66.413,333.653,68.973,330.24,68.973z"/>
	<path d="M281.6,59.587L281.6,59.587c-5.973-0.853-11.947-0.853-17.067-0.853c-5.12,0-8.533-3.413-8.533-8.533
		s3.413-8.533,8.533-8.533c5.973,0,11.947,0,17.92,0.853c5.12,0,8.533,4.267,7.68,9.387C290.133,56.173,285.867,59.587,281.6,59.587
		z"/>
	<path d="M52.053,289.133c-4.267,0-8.533-3.413-8.533-7.68c-0.853-5.973-0.853-11.947-0.853-17.92c0-5.12,3.413-8.533,8.533-8.533
		s8.533,3.413,8.533,8.533c0,5.12,0,11.093,0.853,16.213C60.587,284.867,57.173,289.133,52.053,289.133L52.053,289.133z"/>
	<path d="M81.92,382.147c-2.56,0-5.973-1.707-6.827-4.267c-3.413-5.973-6.827-11.947-10.24-17.92c-1.707-4.267,0-9.387,3.413-11.093
		c4.267-1.707,9.387,0,11.093,3.413c2.56,5.973,5.973,11.093,9.387,16.213c2.56,4.267,1.707,9.387-2.56,11.947
		C85.333,381.293,83.627,382.147,81.92,382.147z M61.44,337.773c-3.413,0-6.827-2.56-8.533-5.973
		c-1.707-6.827-4.267-12.8-5.12-19.627c-0.853-4.267,1.707-9.387,6.827-10.24c4.267-0.853,9.387,1.707,10.24,6.827
		c1.707,5.973,3.413,11.947,5.12,17.92c1.707,4.267-0.853,9.387-5.12,11.093C63.147,336.92,62.293,337.773,61.44,337.773z"/>
	<path d="M201.387,463.213c-0.853,0-0.853,0-1.707,0c-6.827-1.707-13.653-3.413-19.627-5.12c-4.267-1.707-6.827-5.973-5.12-11.093
		c1.707-4.267,5.973-6.827,11.093-5.12c5.973,1.707,11.947,3.413,17.92,5.12c4.267,0.853,7.68,5.973,6.827,10.24
		C208.213,460.653,204.8,463.213,201.387,463.213z M154.453,447c-1.707,0-2.56,0-3.413-0.853c-5.973-3.413-11.947-6.827-17.92-10.24
		c-4.267-2.56-5.12-7.68-2.56-11.947c2.56-4.267,7.68-5.12,11.947-2.56c5.12,3.413,11.093,6.827,16.213,9.387
		c4.267,1.707,5.973,6.827,3.413,11.093C160.427,445.293,157.867,447,154.453,447z M114.347,419.693
		c-1.707,0-4.267-0.853-5.973-2.56c-5.12-4.267-10.24-9.387-14.507-14.507c-3.413-3.413-2.56-8.533,0.853-11.947
		c3.413-3.413,8.533-2.56,11.947,0.853c4.267,4.267,8.533,9.387,13.653,13.653c3.413,3.413,3.413,8.533,0.853,11.947
		C118.613,418.84,116.053,419.693,114.347,419.693z"/>
	<path d="M247.467,468.333c-5.973,0-11.947,0-17.92-0.853c-5.12,0-8.533-4.267-7.68-9.387c0-5.12,4.267-8.533,9.387-7.68
		c5.12,0,11.093,0.853,16.213,0.853c5.12,0,8.533,3.413,8.533,8.533S252.587,468.333,247.467,468.333z"/>
	<path d="M128,58.733H42.667c-5.12,0-8.533-3.413-8.533-8.533s3.413-8.533,8.533-8.533H128c5.12,0,8.533,3.413,8.533,8.533
		S133.12,58.733,128,58.733z"/>
	<path d="M162.133,92.867H68.267c-5.12,0-8.533-3.413-8.533-8.533s3.413-8.533,8.533-8.533h93.867c5.12,0,8.533,3.413,8.533,8.533
		S167.253,92.867,162.133,92.867z"/>
	<path d="M128,127H42.667c-5.12,0-8.533-3.413-8.533-8.533s3.413-8.533,8.533-8.533H128c5.12,0,8.533,3.413,8.533,8.533
		S133.12,127,128,127z"/>
	<path d="M76.8,161.133H42.667c-5.12,0-8.533-3.413-8.533-8.533c0-5.12,3.413-8.533,8.533-8.533H76.8
		c5.12,0,8.533,3.413,8.533,8.533C85.333,157.72,81.92,161.133,76.8,161.133z"/>
	<path d="M128,195.267H59.733c-5.12,0-8.533-3.413-8.533-8.533c0-5.12,3.413-8.533,8.533-8.533H128c5.12,0,8.533,3.413,8.533,8.533
		C136.533,191.853,133.12,195.267,128,195.267z"/>
	<path d="M486.4,511H298.667c-14.507,0-25.6-11.093-25.6-25.6V297.667c0-14.507,11.093-25.6,25.6-25.6H486.4
		c14.507,0,25.6,11.093,25.6,25.6V485.4C512,499.907,500.907,511,486.4,511z M298.667,289.133c-5.12,0-8.533,3.413-8.533,8.533
		V485.4c0,5.12,3.413,8.533,8.533,8.533H486.4c5.12,0,8.533-3.413,8.533-8.533V297.667c0-5.12-3.413-8.533-8.533-8.533H298.667z"/>
	<path d="M401.067,331.8h-85.333c-5.12,0-8.533-3.413-8.533-8.533c0-5.12,3.413-8.533,8.533-8.533h85.333
		c5.12,0,8.533,3.413,8.533,8.533C409.6,328.387,406.187,331.8,401.067,331.8z"/>
	<path d="M435.2,365.933h-93.867c-5.12,0-8.533-3.413-8.533-8.533s3.413-8.533,8.533-8.533H435.2c5.12,0,8.533,3.413,8.533,8.533
		S440.32,365.933,435.2,365.933z"/>
	<path d="M401.067,400.067h-85.333c-5.12,0-8.533-3.413-8.533-8.533s3.413-8.533,8.533-8.533h85.333c5.12,0,8.533,3.413,8.533,8.533
		S406.187,400.067,401.067,400.067z"/>
	<path d="M349.867,434.2h-34.133c-5.12,0-8.533-3.413-8.533-8.533s3.413-8.533,8.533-8.533h34.133c5.12,0,8.533,3.413,8.533,8.533
		S354.987,434.2,349.867,434.2z"/>
	<path d="M401.067,468.333H332.8c-5.12,0-8.533-3.413-8.533-8.533s3.413-8.533,8.533-8.533h68.267c5.12,0,8.533,3.413,8.533,8.533
		S406.187,468.333,401.067,468.333z"/>
</g>
<g>
</g>
<g>
</g>
<g>
</g>
<g>
</g>
<g>
</g>
<g>
</g>
<g>
</g>
<g>
</g>
<g>
</g>
<g>
</g>
<g>
</g>
<g>
</g>
<g>
</g>
<g>
</g>
<g>
</g>
</svg>
