<?xml version="1.0" encoding="iso-8859-1"?>
<!-- Generator: Adobe Illustrator 19.0.0, SVG Export Plug-In . SVG Version: 6.00 Build 0)  -->
<svg version="1.1" id="Layer_1" xmlns="http://www.w3.org/2000/svg" xmlns:xlink="http://www.w3.org/1999/xlink" x="0px" y="0px"
	 viewBox="0 0 485 485" style="enable-background:new 0 0 485 485;" xml:space="preserve">
<g>
	<g>
		<path style="fill:#FFD248;" d="M382.5,97.5v180h-56.1c0.1-0.2,0.3-0.3,0.4-0.5c16.5-21.1,25.7-49,25.7-79.5v-55l-110-60
			c0,26.9-110,60-110,60v55c0,30.5,9.2,58.4,25.7,79.5c0.1,0.2,0.3,0.3,0.4,0.5h-56.1v-180c0-49.7,40.3-90,90-90h100
			C342.2,7.5,382.5,47.8,382.5,97.5z"/>
		<polygon style="fill:#AFB6BB;" points="212.5,477.5 212.5,477.5 211.6,476.1 174.3,417.5 307.5,417.5 307.8,417.7 272.5,477.5 		
			"/>
		<path style="fill:#EF7EB1;" d="M432.5,452.5c0,0,0,11,0,25h-160l35.3-59.8l29.7-50.2C432.2,397.5,432.5,452.5,432.5,452.5z"/>
		<path style="fill:#EF7EB1;" d="M212.5,477.5h-160c0-14,0-25,0-25s0.9-53.1,90.9-83.6L212.5,477.5z"/>
		<path style="fill:#FFE1B2;" d="M147.5,367.5c0,0,34.1-17.8,45-30v-31.8c0.2,0.2,0.5,0.3,0.7,0.4c14.4,7.3,31,11.4,49.3,11.4
			s34.9-4.1,49.3-11.4c0.2-0.1,0.5-0.2,0.7-0.4v31.8c10.9,12.2,45,30,45,30l-29.7,50.2l-0.3-0.2H174.3l-30.9-48.6
			C144.7,368.4,146.1,367.9,147.5,367.5z"/>
		<path style="fill:#FFE1B2;" d="M326.4,277.5c-9.2,11.7-20.6,21.4-33.9,28.2c-0.2,0.2-0.5,0.3-0.7,0.4c-14.4,7.3-31,11.4-49.3,11.4
			s-34.9-4.1-49.3-11.4c-0.2-0.1-0.5-0.2-0.7-0.4c-13.3-6.8-24.7-16.5-33.9-28.2c-0.1-0.2-0.3-0.3-0.4-0.5
			c-16.5-21.1-25.7-49-25.7-79.5v-55c0,0,110-33.1,110-60l110,60v55c0,30.5-9.2,58.4-25.7,79.5C326.7,277.2,326.5,277.3,326.4,277.5
			z"/>
	</g>
	<g>
		<path style="fill:#231F20;" d="M340.4,360.552c-8.931-4.704-30.922-17.164-40.4-26.105v-24.283
			c11.264-6.397,21.316-14.836,29.963-25.164H390V97.5C390,43.738,346.262,0,292.5,0h-100C138.738,0,95,43.738,95,97.5V285h60.036
			c8.648,10.327,18.7,18.767,29.964,25.164v24.283c-9.455,8.92-42.757,26.866-44.147,27.398
			c-93.787,31.837-95.812,88.146-95.852,90.528L45,485h395v-32.541C439.986,449.996,438.545,391.89,340.4,360.552z M110,97.5
			c0-45.491,37.01-82.5,82.5-82.5h100c45.49,0,82.5,37.009,82.5,82.5V270h-34.328C353.193,249.28,360,224.052,360,197.5v-59.452
			L235,69.866V82.5c0,1.21-1.412,12.425-50.323,33.139c-26.816,11.356-54.066,19.598-54.338,19.68L125,136.925V197.5
			c0,26.552,6.807,51.78,19.328,72.5H110V97.5z M164.697,273.12c-0.212-0.302-0.423-0.559-0.617-0.776
			C148.552,252.467,140,225.889,140,197.5v-49.484c9.394-2.996,29.771-9.782,50.423-18.521
			c36.234-15.334,50.726-27.189,56.299-36.149L345,146.952V197.5c0,28.387-8.552,54.965-24.078,74.841
			c-0.194,0.217-0.407,0.476-0.62,0.78c-8.767,11.079-19.268,19.792-31.216,25.901l-1.049,0.536l-0.079,0.079
			C274.213,306.514,258.923,310,242.5,310c-16.408,0-31.687-3.48-45.458-10.363l-1.128-0.615
			C183.966,292.913,173.464,284.199,164.697,273.12z M198.093,342.497l1.907-2.135v-23.049c13.219,5.099,27.464,7.687,42.5,7.687
			c15.043,0,29.295-2.59,42.5-7.685v23.047l1.907,2.135c8.695,9.732,29.172,21.793,40.168,27.894L303.641,410H178.419
			l-23.971-37.703C163.897,367.185,188.367,353.383,198.093,342.497z M294.781,425l-26.563,45h-51.61l-28.644-45H294.781z
			 M60,452.641c0.048-0.873,0.886-12.567,11.093-27.298c16.635-24.01,45.773-38.82,69.177-47.385L198.825,470H60V452.641z M425,470
			H285.637l28.618-48.481l26.626-45.005c24.68,8.457,55.423,23.311,72.75,47.971c10.718,15.254,11.344,27.458,11.368,28.096L425,470
			L425,470z"/>
		<path style="fill:#231F20;" d="M242.5,235h20v-15H250v-32.5h-15v40C235,231.642,238.357,235,242.5,235z"/>
	</g>
</g>
<g>
</g>
<g>
</g>
<g>
</g>
<g>
</g>
<g>
</g>
<g>
</g>
<g>
</g>
<g>
</g>
<g>
</g>
<g>
</g>
<g>
</g>
<g>
</g>
<g>
</g>
<g>
</g>
<g>
</g>
</svg>
